<?xml version="1.0" encoding="utf-8"?>
<svg xmlns="http://www.w3.org/2000/svg" xmlns:xlink="http://www.w3.org/1999/xlink" version= "1.1" width="1482px" height="1058px" viewBox="-202 514 1482 1058">
<g id="layer1">
<g style="fill:rgb(255,255,255); fill-opacity:1.0; stroke-linejoin: miter">
<path d="M-202.001,512.9193C-202.28737,512.9193,-202.562,513.033,-202.76448,513.23553C-202.96696,513.43805,-203.08072,513.71265,-203.08072,513.999L-203.07971,1572.0C-203.07971,1572.5963,-202.5963,1573.0797,-202.0,1573.0797L1280.001,1573.0807C1280.2874,1573.0807,1280.5619,1572.9669,1280.7644,1572.7644C1280.9669,1572.5619,1281.0807,1572.2874,1281.0807,1572.001L1281.0797,514.0C1281.0797,513.4037,1280.5963,512.9203,1280.0,512.9203L-202.001,512.9193 Z"/>
</g>
<g style="fill:rgb(0,0,0); fill-opacity:1.0; stroke-linejoin: miter">
<path d="M20.107744,1512.095L19.939428,1573.0798L615.379,1573.0802Q615.46094,1543.4097,615.54285,1513.7391L317.82532,1512.9171L20.107744,1512.095 Z"/>
</g>
<g style="fill:rgb(0,0,0); fill-opacity:1.0; stroke-linejoin: miter">
<path d="M898.8122,1028.9347C898.934,1028.9933,896.379,1032.3137,893.1501,1036.3923C887.2349,1043.9365,870.34644,1068.0261,866.66003,1074.1128C865.63135,1075.9131,861.68787,1082.5999,857.91565,1088.9438C854.30054,1095.0239,851.31537,1099.6866,851.07336,1099.6866C851.0628,1099.6866,851.0575,1099.6779,851.0575,1099.66C851.0575,1098.5454,860.31616,1080.1997,864.94556,1072.3982C869.14624,1065.197,882.00543,1048.0513,891.6071,1036.821C895.3468,1032.5712,898.58105,1028.9955,898.8032,1028.9347 Z M767.301,1038.7928L768.3297,1046.5084C769.0156,1050.7091,769.53,1057.1388,769.53,1060.6537C769.6157,1066.3976,768.4154,1072.6556,765.3292,1082.5143C762.8021,1090.685,754.56415,1114.0848,754.2778,1114.0848C754.2727,1114.0848,754.27014,1114.0774,754.27014,1114.0625C754.18445,1112.605,756.24194,1104.9751,758.7279,1097.5167C759.8425,1094.0018,762.3286,1086.4578,764.129,1080.7997L767.4724,1070.5123L767.3867,1054.6525L767.301,1038.7928 Z M851.6836,1051.9426C851.71155,1051.9426,851.73157,1051.9598,851.7433,1051.9949C851.9148,1052.5093,851.6576,1053.4524,851.229,1054.0525C850.7146,1054.6523,849.5144,1057.2244,848.5714,1059.7961C847.5426,1062.3682,846.3424,1065.2827,845.9138,1066.2258C845.0565,1068.112,844.0277,1070.8552,839.05554,1085.0862C833.74036,1100.603,829.62537,1118.7775,827.9109,1135.237C827.2451,1141.2285,826.66486,1144.8275,826.38116,1144.8275C826.263,1144.8275,826.1963,1144.203,826.1963,1142.867C826.282,1137.6377,827.9966,1118.863,828.8539,1114.6625C832.79736,1094.1732,836.82666,1082.1711,847.4569,1059.4534C849.454,1055.1396,851.30206,1051.9426,851.6836,1051.9426 Z M739.3565,1268.1162C739.6098,1268.1332,739.52344,1270.1836,739.1818,1272.5741C736.59454,1292.9382,732.301,1307.7772,722.02985,1331.725L722.02985,1331.725L719.8838,1330.9227L719.8766,1330.9227C722.2371,1324.8988,725.0337,1318.2986,728.4659,1310.5516C731.38055,1304.0364,737.89594,1279.9468,737.89594,1275.5746C737.89594,1272.9243,738.8338,1268.1422,739.3491,1268.1162 Z M871.4811,1166.9354L871.4811,1166.9354C871.67255,1166.9462,871.306,1167.6873,870.2606,1169.2712C859.97314,1185.0454,841.7987,1216.1648,837.598,1225.1663C829.8825,1241.7118,828.7681,1247.5413,830.8255,1258.6859C833.48303,1273.0027,833.74023,1274.6316,834.25464,1279.861L834.7689,1285.1761L831.0827,1286.805C825.68195,1289.2053,824.9959,1290.4912,825.8532,1295.8064L826.62494,1300.2643L836.4835,1300.7787C845.7422,1301.2931,856.4581,1303.1791,857.744,1304.5507C857.9126,1304.7191,857.605,1304.7946,856.9789,1304.7946C855.0569,1304.7946,850.1335,1304.0844,846.7709,1303.1792C844.65015,1302.6372,842.2185,1302.3867,839.7412,1302.3867C833.20593,1302.3867,826.3531,1304.1301,824.05304,1306.8654C821.39545,1310.0375,821.9954,1311.409,826.9677,1313.1237C831.4257,1314.5809,833.39734,1316.3813,841.62726,1326.84L847.11383,1333.6982L838.8839,1325.8114C833.9116,1321.0106,828.9395,1317.1528,826.4534,1316.0385C824.2243,1315.0096,821.39545,1313.7238,820.28094,1313.2094C819.16644,1312.6951,817.88055,1311.409,817.36615,1310.2089C816.50885,1308.4943,816.68024,1307.98,818.48065,1306.6083C822.8527,1303.3505,823.6243,1302.1504,823.02435,1300.3501C822.59564,1299.3213,822.33844,1296.0637,822.33844,1293.0631L822.33844,1287.4908L826.5391,1285.3475L830.6541,1283.2045L830.054,1276.7747C829.7111,1273.1741,828.9395,1267.4303,828.2537,1264.0012C826.3676,1254.228,826.7105,1245.5695,829.1967,1237.2539C834.34033,1220.1083,849.3428,1194.0468,866.2313,1172.7004C869.1785,1169.0566,871.12103,1166.9535,871.47235,1166.9354 Z M813.5057,1322.967C814.40924,1322.967,815.1117,1323.483,815.48016,1324.6113C815.73724,1325.5543,817.19464,1327.783,818.65204,1329.5833C821.1381,1332.7552,827.9964,1342.8712,832.1971,1349.9009C833.35095,1351.8241,833.7492,1352.7363,833.49756,1352.7363C833.0201,1352.7363,830.20264,1349.4518,825.7675,1343.557C819.0806,1334.7269,813.9368,1329.8405,811.45074,1329.8405C810.5076,1329.8405,808.87897,1331.6407,807.25006,1334.5555C804.59247,1339.3563,802.7065,1340.9852,800.04895,1340.9852C798.07715,1340.9852,793.19055,1343.2998,788.7328,1346.3004C786.7611,1347.5862,784.96075,1348.7009,784.61786,1348.7009C784.36066,1348.7009,782.56036,1349.6439,780.6744,1350.844C779.97864,1351.2877,778.9792,1351.869,777.74744,1352.5529L777.74744,1352.5529L774.46954,1351.3275L774.4618,1351.3275C778.12213,1349.0779,782.35693,1346.4454,785.56085,1344.5001C790.7903,1341.328,795.6769,1339.0134,797.99146,1338.5848C801.592,1337.9846,801.8492,1337.7275,804.33527,1332.498C807.09424,1326.7925,811.0454,1322.967,813.5057,1322.967 Z M470.577,1468.0267C471.4361,1468.0267,473.8286,1468.604,475.99576,1469.4065C478.39615,1470.2638,484.56857,1473.4358,489.7123,1476.6078C510.8015,1489.2955,526.91833,1495.3821,545.95,1497.8682C549.8935,1498.3824,555.46594,1499.3254,558.2949,1500.0114C561.54395,1500.7882,547.2922,1501.1288,528.2023,1501.1288C500.95062,1501.1288,463.83948,1500.4348,453.70636,1499.3257C447.1053,1498.5542,437.2465,1497.5254,431.8456,1497.0111C426.44473,1496.4967,421.6439,1495.7251,421.301,1495.3823C420.44376,1494.525,421.21524,1491.5244,422.6727,1489.9813C423.27274,1489.3813,424.98734,1487.238,426.5305,1485.2664C428.33078,1482.9515,430.21677,1481.4943,432.1028,1481.1512C436.73215,1480.1226,443.2475,1476.5221,447.1053,1472.7499L450.79156,1469.1493L459.96454,1468.635C465.02252,1468.3777,469.73755,1468.1206,470.4234,1468.0349C470.46713,1468.0294,470.5185,1468.0267,470.577,1468.0267 Z M729.078,676.2307C727.33276,676.2307,725.6598,676.3745,724.1796,676.6759C722.0363,677.1044,716.1212,679.5051,710.8918,682.1626C705.748,684.7345,699.5755,687.306,697.1751,687.73474C694.86053,688.2494,690.83124,690.1354,688.17365,691.93567C683.20135,695.36487,674.9715,698.96545,668.2848,700.59436C663.6554,701.7943,661.4264,703.6803,663.6554,704.5375C664.4269,704.7948,665.027,705.3949,665.027,705.73816C665.027,706.59534,655.7683,711.0531,649.0816,713.45337C642.6519,715.6824,640.08,717.9114,635.53656,724.76953C631.76434,730.5132,627.6495,733.771,620.7912,736.4287C617.4478,737.8003,616.6761,738.4862,616.8476,739.9435C616.9334,740.97205,617.1048,742.6007,617.2763,743.62976C617.3621,744.91565,616.6761,745.94446,614.7045,747.05896C613.409,747.853,612.7246,748.26,612.15485,748.26C611.55585,748.26,611.0835,747.8102,610.1608,746.8873C609.2988,746.0254,608.59064,745.59937,608.0463,745.59937C607.1831,745.59937,606.73175,746.67053,606.73175,748.7733C606.73175,750.26855,606.70276,750.92346,606.37524,750.92346C606.1394,750.92346,605.74884,750.58386,605.10284,749.97375C604.31433,749.2593,603.6888,748.87756,603.1976,748.87756C601.97974,748.87756,601.58795,751.22363,601.58795,756.6603C601.58795,762.2328,601.24493,764.1188,600.2163,764.97595C599.72485,765.3622,599.36273,765.5759,599.0123,765.5759C598.5069,765.5759,598.02576,765.13135,597.21576,764.1188C596.5103,763.2722,595.63086,762.65796,595.0548,762.65796C594.9308,762.65796,594.8208,762.6864,594.7297,762.7472C593.4438,763.5187,593.7866,772.6918,595.1582,775.1776C595.8441,776.37805,596.3584,778.00696,596.4442,778.9498C596.4442,779.86426,596.25366,780.20715,595.4407,780.20715C595.03424,780.20715,594.4723,780.12146,593.7008,779.97864C592.2435,779.72156,590.2717,778.7782,589.4144,778.00696C588.7321,777.37317,588.2437,777.07214,587.8075,777.07214C587.4765,777.07214,587.17554,777.2455,586.8427,777.57825C585.4711,778.9498,588.7287,791.6378,592.2435,798.6676L594.7296,803.63965L592.3292,803.12524C591.0432,802.8679,589.1573,802.4396,588.1287,802.09656C587.7786,802.0044,587.476,801.9608,587.2194,801.96045L587.2135,801.96045C585.0896,801.9633,586.1272,804.9447,589.4144,807.926C591.9005,810.2405,593.7866,811.0979,597.13,811.52637C602.3271,812.21436,603.7768,813.65186,600.1424,813.65186C599.70013,813.65186,599.1826,813.6305,598.5874,813.584C598.1171,813.5515,597.6822,813.536,597.2832,813.536C593.4635,813.536,592.9432,814.96277,596.3584,816.67017C597.991,817.51465,599.9656,817.9248,602.1273,817.9248C606.5495,817.9248,611.755,816.2086,616.41907,812.98413C618.56213,811.52637,620.7053,810.3264,621.1339,810.3264C621.5626,810.3264,622.24854,814.4414,622.59143,819.4995C623.1915,829.1008,624.4774,833.9016,630.2213,848.4756C631.8501,852.6765,633.2217,856.87695,633.3075,857.7344C633.3932,862.79224,639.73706,870.8506,645.65247,873.4226C647.10974,874.0227,649.25305,875.3086,650.4531,876.2517L652.59644,877.9663L652.59644,903.6848L652.5963,929.4032L654.9967,931.80383C657.3113,934.2042,657.5686,934.2042,667.68445,934.2042L677.9719,934.204L680.1151,937.6332C681.2296,939.5194,682.6012,942.6913,683.1156,944.7489C684.3159,949.2926,688.088,952.6361,692.0315,952.6361C694.7749,952.6361,694.9463,952.7218,694.4319,955.46497C693.9176,958.8085,696.1465,961.98035,701.03296,964.72375C704.80505,966.8668,706.17676,969.95325,706.17676,976.4684C706.17676,986.15564,713.7208,993.87146,724.35095,995.1572C725.61115,995.30664,726.8673,995.38293,728.1293,995.38293C736.9978,995.38293,746.152,991.61414,758.98535,982.98364C765.86633,978.3429,769.362,976.291,771.2897,976.291C772.4601,976.291,773.0525,977.0475,773.4735,978.4402C773.9021,979.7261,772.9591,981.355,769.8729,984.8696C761.72864,994.2998,760.27136,996.1858,745.6975,1015.4746C728.89465,1037.8497,729.83765,1034.5065,737.4674,1045.5656C739.6107,1048.6515,741.3253,1051.3949,741.3253,1051.5663C741.3253,1051.7379,743.0399,1054.5668,745.1831,1057.8246C747.3263,1060.9965,749.0409,1064.0829,749.0409,1064.683C749.0409,1065.2828,747.4977,1068.9694,745.526,1072.827C736.0101,1092.1158,734.2955,1098.8883,729.3233,1137.3802C725.7227,1164.899,724.5224,1173.472,722.5506,1185.8169C720.7504,1196.9617,718.09283,1215.3075,716.5496,1227.8239C715.26373,1237.5112,713.9777,1257.7429,713.20624,1278.575C712.77765,1288.7767,712.17755,1295.8064,711.57745,1296.578C709.51996,1299.0641,703.69037,1318.5245,697.6892,1343.1283C695.20325,1352.9872,692.80273,1362.6746,692.37415,1364.5605C691.51697,1367.7325,690.83105,1368.3325,682.4297,1373.1334C669.3131,1380.5918,655.85394,1389.5931,653.9679,1392.3367C653.0248,1393.6227,651.4818,1396.623,650.6245,1398.9379L648.9956,1403.1385L634.93616,1407.682C621.6483,1411.9685,600.7305,1418.5697,592.1578,1421.1415C585.62604,1423.1432,578.7059,1424.1738,572.3917,1424.1738C568.4296,1424.1738,564.7062,1423.768,561.467,1422.9417C547.6647,1419.3411,518.43134,1406.5677,493.57016,1393.2798C488.41766,1390.544,485.2781,1389.2147,481.99734,1389.2147C479.1098,1389.2147,476.1129,1390.2444,471.53793,1392.251C465.7084,1394.8229,464.8511,1394.9944,454.73517,1394.9944C442.8189,1394.9944,442.21875,1395.1659,430.5597,1403.0529C427.3021,1405.2817,419.58652,1409.5682,413.41403,1412.5686C407.3273,1415.5691,401.41202,1418.7411,400.38327,1419.5984C399.44028,1420.4557,396.95413,1423.799,394.9824,1427.0566C393.01065,1430.2285,389.3244,1436.0583,386.75256,1439.8304C384.09497,1443.6024,380.23715,1450.2032,378.09396,1454.4897C375.9507,1458.7761,372.52158,1464.8629,370.46408,1468.0349C363.34866,1479.0082,362.83432,1480.9799,366.09195,1483.9803C367.3657,1485.2069,368.53558,1485.7844,370.5016,1485.7844C372.1083,1485.7844,374.24677,1485.3987,377.40817,1484.6661C381.60886,1483.6375,383.15195,1482.7802,385.80954,1479.7797C387.3919,1477.9598,388.90134,1476.5784,389.32678,1476.5784C389.36234,1476.5784,389.3903,1476.588,389.41013,1476.6078C390.26743,1477.4651,386.66678,1488.4382,385.46658,1488.4382C385.03793,1488.4382,384.09494,1489.6384,383.40915,1491.0958L382.0375,1493.6677L360.86252,1493.239L339.68762,1492.8962L337.80164,1490.6671C336.77283,1489.467,335.05823,1485.695,334.02954,1482.2657C330.5147,1470.6068,326.74268,1459.3763,320.31305,1442.1451C318.85565,1438.1158,315.7694,1429.4573,313.36902,1422.8562C311.05438,1416.2551,307.36804,1406.0533,305.2248,1400.1381C303.1673,1394.2228,300.93842,1387.8789,300.25256,1385.9929C299.65247,1384.1069,296.73767,1375.9626,293.82294,1367.99C289.10785,1354.9592,285.5072,1345.0146,277.9632,1323.84C276.76306,1320.3251,273.591,1311.5808,271.01917,1304.551C268.36157,1297.4355,265.18958,1288.6056,263.9037,1284.8335C260.30304,1274.8033,252.67328,1253.5424,251.38733,1250.1133C250.70149,1248.4844,248.98691,1243.598,247.52959,1239.3975C246.07219,1235.111,244.35759,1230.31,243.6718,1228.6813C241.8715,1223.9663,235.01323,1204.9346,232.69853,1197.8191C225.92601,1177.4158,223.01128,1171.8434,217.69609,1168.5001C216.23085,1167.5984,215.96756,1167.0753,212.5119,1167.0753C208.0823,1167.0753,198.40735,1167.9347,174.23172,1169.9574C165.74466,1170.6431,154.1713,1171.672,148.51323,1172.1007C142.85509,1172.5293,128.9671,1173.7295,117.65095,1174.6727C106.334785,1175.6155,91.8467,1176.7299,85.50277,1177.2443C79.158905,1177.6729,69.55728,1178.5302,64.242096,1179.1304C52.926006,1180.2448,51.211407,1181.4451,51.211407,1188.1318C51.211407,1191.7324,52.068707,1194.5614,57.98392,1210.6785C60.898716,1218.5654,65.528046,1231.253,66.64255,1234.6823C67.07114,1235.8826,68.69998,1240.5117,70.32883,1244.9696C71.957726,1249.4275,75.215355,1258.5146,77.53005,1265.1158C83.188065,1280.8041,89.61775,1298.7214,95.79023,1315.6956C98.53358,1323.2397,102.73426,1334.9847,105.22034,1341.8429C107.62079,1348.7013,111.39282,1359.0743,113.536064,1364.9896C115.67925,1370.9049,118.336845,1378.3633,119.53704,1381.7068C120.65148,1384.9645,122.28033,1389.5936,123.22332,1391.9941C125.53802,1398.338,139.8547,1438.2872,141.9979,1444.2883C142.94087,1447.1172,145.16982,1453.2897,146.88434,1458.0048C150.39923,1467.6921,155.54291,1482.0945,161.20099,1497.9541C163.25848,1503.8694,165.65894,1509.8704,166.43048,1511.4135C168.145,1514.7568,174.8319,1519.9006,178.86107,1521.0151C180.57567,1521.4437,192.5776,1522.3867,205.5226,1523.1583C218.46759,1523.9299,233.38432,1524.8729,238.52812,1525.3015C249.07268,1526.2445,293.9086,1529.0736,322.02753,1530.531C328.84265,1530.8739,339.68665,1531.0453,357.65604,1531.0453C375.62704,1531.0453,400.72467,1530.8739,436.04636,1530.5309C591.7291,1528.9878,614.6186,1528.6448,619.5909,1527.7018C624.90607,1526.7587,629.36395,1524.3584,631.24994,1521.3579C632.79315,1519.0432,633.9931,1503.5264,632.70734,1502.7548C632.2786,1502.4977,622.5057,1502.2405,611.018,1502.1547C599.4447,1502.069,588.3856,1501.8118,586.32825,1501.5547C582.64185,1501.126,582.72766,1501.0402,593.6151,1497.1825L604.5885,1493.2389L638.794,1492.8961C647.518,1492.823,654.03925,1492.7775,658.89526,1492.7775C664.83057,1492.7775,668.27814,1492.8453,670.21954,1493.0135L670.2128,1493.0135L654.4437,1556.7247L727.63184,1555.4897L728.60626,1573.0803L1050.4183,1573.0806L1043.1293,1495.6191L1043.1189,1495.6191C1043.5194,1492.5768,1043.939,1489.3198,1044.3749,1485.8661C1048.9183,1450.2887,1049.5183,1446.6022,1054.7479,1425.4275C1059.9772,1403.9098,1063.3207,1388.4788,1067.9501,1364.5604C1070.6075,1350.6725,1073.951,1326.2399,1076.6086,1301.1215C1078.4088,1284.919,1077.8088,1229.3668,1075.6655,1205.1056C1074.7227,1193.7897,1073.5225,1178.5299,1073.008,1171.2432C1070.6078,1133.6084,1067.1786,1110.2902,1061.5206,1092.9731C1051.4047,1061.9395,1021.05695,1015.2175,993.0237,987.3557C977.84985,972.3534,944.4158,945.6918,930.61346,937.5475C926.06976,934.8898,924.95526,933.86096,925.2983,932.66077C925.81256,930.9464,907.72394,893.65454,904.7236,890.22534C903.78046,889.19653,902.066,888.33936,900.77997,888.33936C899.4941,888.33936,892.8073,891.25415,885.94904,894.76904L873.43256,901.1985L869.31757,894.08325C863.2309,883.7102,856.71564,869.9935,854.22943,862.19226C850.02875,848.9044,849.1716,841.78906,848.48566,810.7554C847.8,781.69336,847.1141,774.4922,843.7707,761.4612C842.1419,754.86035,838.4555,743.88696,836.9124,740.8865C836.3123,739.6863,835.0264,735.2285,833.9976,731.02783C832.9688,726.74146,831.51154,721.7688,830.7399,719.88306C827.39655,711.82446,821.48126,706.8523,812.73706,704.96606C802.7925,702.823,801.5923,702.30884,799.3633,699.4795C798.1632,697.9363,795.6771,695.96484,793.7053,695.0217C791.7335,694.1643,790.1904,692.96436,790.1904,692.27856C790.1904,691.5925,789.59033,689.96387,788.9044,688.59204C788.07404,686.9314,786.6002,685.9857,785.38324,685.9857C784.7156,685.9857,784.12524,686.27026,783.7608,686.87756C783.42175,687.41455,782.8406,687.6907,781.95905,687.6907C780.1657,687.6907,777.1293,686.5481,772.3591,684.13416C765.3293,680.53357,764.9006,680.4479,754.2703,679.9337C748.2695,679.59094,741.92535,678.7335,740.03937,678.0477C736.8319,676.88135,732.7913,676.2307,729.078,676.2307 Z"/>
</g>
</g>
</svg>