<svg width="153.250000" height="40.000000" viewBox="0 0 153.25 40" fill="none" xmlns="http://www.w3.org/2000/svg" xmlns:xlink="http://www.w3.org/1999/xlink">
	<desc>
			Created with Pixso.
	</desc>
	<defs/>
	<rect id="GraduationCap" rx="0.000000" width="39.000000" height="39.000000" transform="translate(0.750000 0.500000)" fill="#FFFFFF" fill-opacity="0"/>
	<path id="Vector" d="M20.25 5L39 15L20.25 25L1.5 15L20.25 5Z" stroke="#FF6636" stroke-opacity="1.000000" stroke-width="3.000000" stroke-linejoin="round"/>
	<path id="Vector" d="M29.62 37.5L29.62 20L20.25 15" stroke="#FF6636" stroke-opacity="1.000000" stroke-width="3.000000" stroke-linejoin="round" stroke-linecap="round"/>
	<path id="Vector" d="M34.62 17.33L34.62 25.85C34.62 26.12 34.53 26.38 34.37 26.59C33.32 28 28.88 33.12 20.25 33.12C11.61 33.12 7.17 28 6.12 26.59C5.96 26.38 5.87 26.12 5.87 25.85L5.87 17.33" stroke="#FF6636" stroke-opacity="1.000000" stroke-width="3.000000" stroke-linejoin="round" stroke-linecap="round"/>
	<path id="E-tutor" d="M65.77 31L50.54 31L50.54 7.72L65.67 7.72L65.67 11.25L54.75 11.25L54.75 17.57L64.89 17.57L64.89 21.11L54.75 21.11L54.75 27.46L65.77 27.46L65.77 31ZM88.06 13.54L91.51 13.54L91.51 16.72L88.06 16.72L88.06 25.75C88.06 27.4 88.9 27.77 89.93 27.77C90.44 27.77 90.9 27.67 91.13 27.61L91.83 30.82C91.38 30.97 90.58 31.2 89.4 31.24C86.31 31.32 83.93 29.71 83.95 26.42L83.95 16.72L81.47 16.72L81.47 13.54L83.95 13.54L83.95 9.36L88.06 9.36L88.06 13.54ZM117.77 13.54L121.21 13.54L121.21 16.72L117.77 16.72L117.77 25.75C117.77 27.4 118.6 27.77 119.63 27.77C120.14 27.77 120.61 27.67 120.84 27.61L121.53 30.82C121.09 30.97 120.28 31.2 119.11 31.24C116.02 31.32 113.63 29.71 113.66 26.42L113.66 16.72L111.18 16.72L111.18 13.54L113.66 13.54L113.66 9.36L117.77 9.36L117.77 13.54ZM146.12 31L142.01 31L142.01 13.54L146 13.54L146 16.45L146.17 16.45C146.82 14.42 148.49 13.29 150.49 13.29C150.94 13.29 151.59 13.34 151.96 13.4L151.96 17.19C151.61 17.07 150.75 16.95 150.05 16.95C147.79 16.95 146.12 18.52 146.12 20.74L146.12 31ZM139.49 22.34C139.49 27.74 136.24 31.34 131.13 31.34C126.02 31.34 122.77 27.74 122.77 22.34C122.77 16.92 126.02 13.32 131.13 13.32C136.24 13.32 139.49 16.92 139.49 22.34ZM101.4 27.63C103.22 27.63 105.12 26.32 105.12 23.65L105.12 13.54L109.23 13.54L109.23 31L105.24 31L105.24 27.89L105.06 27.89C104.26 29.85 102.42 31.22 99.81 31.22C96.38 31.22 93.99 28.85 93.99 24.65L93.99 13.54L98.1 13.54L98.1 24.02C98.1 26.24 99.42 27.63 101.4 27.63ZM126.93 22.32C126.93 25.52 128.32 28.04 131.15 28.04C133.93 28.04 135.32 25.52 135.32 22.32C135.32 19.13 133.93 16.57 131.15 16.57C128.32 16.57 126.93 19.13 126.93 22.32ZM68.95 19.61L79.42 19.61L79.42 23L68.95 23L68.95 19.61Z" fill="#1D2026" fill-opacity="1.000000" fill-rule="evenodd"/>
</svg>
